<?xml version="1.0" standalone="no"?>
<!DOCTYPE svg PUBLIC "-//W3C//DTD SVG 20010904//EN"
 "http://www.w3.org/TR/2001/REC-SVG-20010904/DTD/svg10.dtd">
<svg version="1.0" xmlns="http://www.w3.org/2000/svg"
 width="512.000000pt" height="512.000000pt" viewBox="0 0 512.000000 512.000000"
 preserveAspectRatio="xMidYMid meet">
<metadata>
Created by potrace 1.14, written by Peter Selinger 2001-2017
</metadata>
<g transform="translate(0.000000,512.000000) scale(0.100000,-0.100000)"
fill="#000000" stroke="none">
<path d="M2115 4294 c-83 -9 -263 -46 -345 -71 -335 -103 -641 -328 -834 -616
-43 -64 -85 -117 -93 -117 -7 0 -41 -12 -74 -26 -34 -14 -64 -22 -68 -18 -3 4
1 9 9 12 31 10 106 98 118 138 16 55 15 68 -8 113 -44 87 -110 111 -188 69
-52 -29 -169 -132 -192 -171 l-18 -29 -16 30 c-38 73 -139 112 -203 79 -37
-19 -87 -96 -103 -157 -8 -31 -10 -87 -6 -180 8 -146 15 -184 46 -244 22 -45
23 -37 -32 -231 -30 -102 -41 -160 -42 -214 -1 -67 -4 -77 -29 -102 -35 -35
-37 -86 -4 -116 57 -53 205 -103 304 -103 97 0 143 26 143 80 0 41 61 85 156
114 20 6 22 2 28 -79 23 -284 122 -577 268 -793 89 -133 286 -316 448 -419
151 -95 389 -174 618 -203 91 -12 330 -15 414 -4 216 25 449 94 627 183 185
94 424 306 560 496 182 258 290 619 295 991 2 113 6 145 19 164 22 32 22 35
-9 160 -24 94 -26 112 -16 169 6 39 7 72 2 87 -10 25 -47 40 -78 30 -16 -5
-22 2 -37 41 -96 255 -304 515 -539 672 -136 90 -213 129 -346 174 -180 62
-337 88 -550 92 -102 2 -203 1 -225 -1z m360 -154 c33 -5 89 -14 125 -20 36
-6 81 -17 100 -24 19 -8 55 -21 80 -29 105 -35 164 -57 174 -66 6 -5 22 -11
36 -14 14 -2 -15 -5 -65 -6 -119 -2 -161 -14 -185 -54 -26 -42 -25 -73 3 -91
12 -8 105 -33 206 -56 102 -23 193 -45 202 -51 37 -19 78 -11 97 20 l18 29 20
-22 c11 -13 24 -25 29 -27 26 -11 112 -121 125 -158 9 -27 19 -41 31 -41 10 0
21 -9 24 -20 3 -11 11 -20 16 -20 5 0 18 -9 28 -19 14 -14 16 -22 8 -31 -9
-10 -8 -12 5 -7 11 4 19 0 23 -13 4 -11 12 -26 19 -33 17 -17 58 -97 50 -97
-11 0 -127 30 -174 45 l-45 15 3 45 c2 25 1 56 -2 70 -5 20 -11 24 -34 19 -20
-4 -37 2 -70 28 -89 68 -117 86 -124 82 -5 -3 -8 -1 -8 4 0 17 -53 26 -159 27
l-104 0 -44 -41 c-40 -36 -44 -43 -33 -61 7 -11 26 -28 41 -39 16 -10 29 -22
29 -26 0 -5 6 -8 13 -8 7 0 28 -13 47 -30 19 -16 46 -29 60 -30 37 0 13 -16
-62 -38 -36 -12 -117 -42 -180 -68 -182 -75 -245 -93 -284 -81 -25 7 -34 16
-34 31 0 45 -100 226 -124 226 -5 0 -24 14 -42 31 -32 31 -112 58 -123 41 -3
-5 -15 -9 -26 -9 -11 0 -35 0 -54 -1 -28 -2 -32 -4 -21 -17 7 -8 18 -15 24
-15 7 0 22 -11 34 -25 13 -15 27 -22 37 -18 11 4 15 1 13 -8 -1 -8 0 -14 3
-14 4 0 30 -29 60 -65 30 -36 61 -71 69 -77 16 -14 -22 -4 -135 35 -115 39
-198 54 -295 53 -81 -1 -204 -17 -275 -37 -11 -3 -5 4 13 15 17 11 32 28 32
36 0 9 -4 14 -9 10 -5 -3 -12 -1 -16 4 -10 16 -33 1 -54 -35 -19 -31 -19 -34
-3 -35 13 -1 13 -2 -3 -6 -11 -3 -60 -19 -110 -36 -69 -23 -114 -31 -191 -35
l-102 -5 5 25 c8 44 -23 84 -117 149 -49 34 -90 66 -90 69 0 11 94 138 147
198 148 169 466 359 674 403 30 6 62 15 71 20 10 5 39 12 65 14 26 3 71 10 98
15 28 6 64 11 80 13 60 6 301 -3 360 -13z m-1756 -395 c42 -48 42 -95 0 -158
-35 -53 -84 -87 -124 -87 l-28 0 24 -26 24 -25 -30 -56 c-20 -38 -38 -60 -57
-67 -34 -13 -35 -20 -3 -34 20 -9 25 -19 25 -47 0 -43 -19 -125 -33 -142 -13
-17 -21 -10 -47 39 -13 24 -29 53 -35 66 -8 15 -11 45 -8 80 3 31 0 75 -6 97
-8 29 -8 57 0 100 22 123 23 126 110 200 129 110 141 114 188 60z m-441 -91
c72 -50 68 -180 -7 -233 -17 -12 -31 -26 -31 -32 0 -5 20 -14 45 -20 25 -6 47
-15 50 -18 2 -4 -3 -35 -12 -70 -11 -43 -23 -67 -39 -78 -31 -20 -22 -33 25
-33 38 0 39 -1 56 -56 15 -47 16 -82 12 -232 -5 -212 -19 -267 -79 -325 -36
-34 -43 -37 -76 -31 -55 10 -88 30 -111 67 -36 59 -30 115 41 360 l31 108 -31
62 c-34 69 -49 175 -45 327 2 92 17 139 59 189 29 35 74 42 112 15z m642 -187
c32 -12 68 -36 168 -113 37 -29 40 -53 12 -100 -23 -37 -49 -48 -99 -45 -50 3
-88 27 -110 69 l-19 37 -35 -38 c-36 -37 -64 -46 -104 -33 -19 6 -23 2 -33
-36 -15 -59 -35 -93 -57 -93 -16 0 -19 12 -23 93 -5 88 -4 94 18 115 13 12 32
38 42 58 15 29 32 41 92 67 81 35 97 37 148 19z m8 -338 l63 -12 -20 -21 c-11
-11 -23 -34 -27 -50 -8 -31 -78 -106 -100 -106 -7 0 -24 5 -37 11 -22 10 -23
14 -15 57 7 41 16 73 34 130 2 7 12 11 21 8 10 -3 46 -10 81 -17z m191 -42
c10 -8 11 -25 6 -62 -3 -27 -9 -74 -13 -104 -7 -52 -10 -56 -52 -81 -28 -16
-60 -48 -86 -86 -51 -75 -121 -119 -204 -129 -71 -8 -96 3 -105 47 -4 18 -18
59 -31 91 -29 69 -24 83 48 147 l48 42 29 -21 c16 -12 38 -21 49 -21 12 0 32
-4 45 -9 22 -9 25 -7 30 17 3 15 15 33 27 40 19 12 25 11 42 -5 19 -17 19 -17
11 12 -12 46 -8 83 12 105 34 37 108 46 144 17z m133 -24 c34 -20 51 -55 68
-140 27 -130 63 -210 143 -312 83 -108 234 -205 355 -230 158 -33 345 8 477
103 87 63 184 190 220 289 l11 28 27 -21 c16 -13 42 -48 60 -79 45 -80 155
-192 226 -230 32 -17 92 -39 132 -48 l73 -16 -74 -18 c-255 -62 -621 -83 -975
-54 l-60 5 50 -15 c42 -13 119 -15 495 -11 245 3 465 7 490 10 l45 6 -52 -19
c-63 -23 -340 -48 -629 -56 -189 -6 -218 -4 -485 29 -156 20 -357 50 -446 67
-90 17 -174 28 -188 25 -14 -4 -36 -23 -50 -45 -13 -22 -29 -42 -35 -46 -5 -3
-10 -16 -10 -28 0 -19 6 -22 43 -23 25 -1 52 5 67 16 48 34 62 32 140 -14 41
-24 102 -68 135 -96 33 -29 85 -68 115 -88 30 -19 80 -56 110 -82 30 -26 107
-81 170 -123 156 -102 281 -141 485 -154 119 -8 153 -7 230 8 50 10 100 18
112 19 12 0 70 25 130 56 127 65 202 134 350 317 52 64 100 117 107 117 7 0
31 21 53 48 47 55 123 103 123 78 0 -19 16 -21 23 -3 3 7 18 -2 39 -26 29 -33
36 -37 46 -24 14 17 7 43 -21 74 -14 16 -20 37 -21 70 -1 56 -9 65 -53 57 -17
-3 -48 -1 -68 6 l-36 12 47 41 c68 60 158 177 193 250 16 34 38 100 49 147 12
47 25 96 30 110 9 22 10 18 15 -30 4 -30 9 -120 13 -200 3 -80 9 -165 13 -190
7 -48 -2 -195 -19 -325 -11 -81 -54 -189 -86 -216 -9 -8 -28 -32 -42 -54 -19
-30 -27 -36 -31 -24 -3 9 -14 15 -24 13 -10 -1 -21 4 -24 12 -9 23 -29 16 -73
-26 -39 -38 -42 -44 -36 -79 5 -32 2 -43 -19 -67 -14 -16 -53 -62 -86 -102
-40 -48 -77 -81 -110 -97 -27 -14 -49 -22 -49 -19 0 4 -7 1 -15 -6 -12 -10
-15 -10 -15 3 0 26 11 47 25 47 8 0 16 9 20 20 3 11 16 27 28 37 13 10 33 34
46 53 14 19 49 66 80 104 33 42 64 95 78 133 28 78 28 80 2 93 -18 10 -34 -2
-159 -127 -197 -197 -273 -268 -281 -266 -4 2 -11 -6 -14 -17 -7 -23 -21 -26
-28 -7 -3 6 -6 2 -6 -11 -1 -12 -4 -21 -8 -20 -5 1 -34 -24 -66 -54 -71 -68
-147 -110 -252 -139 -71 -19 -95 -21 -218 -16 -123 6 -150 11 -248 43 -65 22
-127 50 -152 69 -47 36 -119 75 -139 75 -7 0 -46 25 -85 55 -78 59 -93 65 -93
36 0 -38 48 -88 151 -157 103 -69 174 -103 270 -127 25 -7 53 -19 62 -28 9 -9
32 -20 51 -23 37 -7 65 -39 46 -51 -6 -4 -17 -4 -25 -1 -8 3 -15 1 -15 -3 0
-5 -19 -12 -42 -16 -24 -4 -46 -11 -49 -16 -3 -5 -59 -10 -125 -10 -65 -1
-125 -6 -131 -11 -7 -6 -27 -8 -45 -4 -18 3 -53 9 -78 12 -25 3 -61 13 -80 22
-19 8 -43 16 -53 17 -9 1 -25 9 -35 17 -9 7 -38 24 -64 37 -26 12 -52 29 -56
38 -7 11 -11 12 -17 4 -5 -9 -18 -4 -43 15 -21 15 -41 32 -47 38 -5 6 -28 20
-50 31 -40 20 -125 92 -125 107 0 4 -19 34 -42 65 -55 74 -64 91 -72 133 -4
19 -18 62 -31 95 -33 86 -55 160 -55 189 0 13 -5 37 -11 53 -6 15 -15 58 -20
96 -7 55 -15 76 -48 120 -21 28 -46 76 -55 106 -9 29 -21 60 -27 67 -9 11 -7
14 8 14 10 0 51 15 90 34 60 29 79 44 123 103 28 37 71 83 96 101 58 43 74 81
74 182 0 89 6 95 62 63z m1308 -137 c0 -52 3 -103 6 -113 5 -16 4 -16 -13 2
-15 18 -18 35 -15 113 2 51 8 92 13 92 5 0 9 -42 9 -94z m-1986 -188 c12 -35
-8 -128 -35 -162 -11 -14 -30 -26 -41 -26 -18 0 -19 4 -13 53 18 141 63 209
89 135z m-486 -227 c20 -10 82 -35 137 -56 117 -43 128 -51 100 -72 -15 -11
-37 -14 -85 -10 -107 8 -220 70 -220 122 0 40 14 43 68 16z m3152 -193 c0 -28
-22 -88 -31 -88 -10 0 -7 32 7 83 6 20 24 23 24 5z m-1830 -24 c0 -8 -4 -12
-10 -9 -5 3 -10 10 -10 16 0 5 5 9 10 9 6 0 10 -7 10 -16z m165 -13 c28 -6 31
-10 37 -61 8 -59 3 -90 -13 -90 -23 0 -117 102 -121 130 -4 29 -3 30 31 29 20
-1 50 -4 66 -8z m1538 -32 c-21 -63 -41 -97 -63 -109 -17 -9 -20 -7 -26 15 -3
14 -2 46 2 72 9 49 23 59 80 62 21 1 21 0 7 -40z m-1313 -10 c70 -12 113 -15
435 -24 116 -3 215 -7 221 -10 21 -7 -1 -78 -34 -115 -32 -34 -35 -35 -117
-39 -102 -4 -115 4 -115 66 0 27 -4 42 -10 38 -5 -3 -10 -21 -10 -39 0 -55
-16 -66 -100 -67 -41 0 -86 4 -100 9 -40 16 -80 59 -80 86 0 14 -4 28 -10 31
-6 4 -10 -9 -10 -32 0 -63 -16 -76 -83 -68 -31 4 -62 12 -70 19 -21 16 -47 91
-47 132 0 39 -15 38 130 13z m1149 -29 c-13 -62 -40 -110 -64 -115 -11 -3 -40
-6 -65 -7 l-44 -3 -9 42 c-5 23 -7 57 -3 76 l7 35 92 9 c50 5 93 8 94 8 1 0
-2 -21 -8 -45z m-216 -17 c-7 -49 -47 -111 -79 -123 -14 -6 -52 -10 -85 -10
-56 0 -60 2 -70 28 -7 15 -14 48 -16 73 l-5 46 78 10 c44 6 102 11 131 12 l52
1 -6 -37z m477 -29 c0 -18 -22 -42 -35 -38 -21 8 -19 32 3 37 27 7 32 7 32 1z
m-94 -80 c4 -14 2 -36 -4 -49 -13 -28 -81 -105 -92 -105 -5 0 -11 26 -15 58
-3 31 -8 67 -11 80 -5 27 20 40 78 41 32 1 39 -3 44 -25z m-1341 -30 c77 -10
105 -30 107 -79 1 -35 2 -36 5 -8 7 54 38 66 153 57 116 -8 127 -15 133 -89
l3 -50 2 58 c2 55 3 59 35 71 47 19 182 20 211 1 46 -30 45 -215 -1 -261 -14
-14 -31 -16 -105 -11 -48 3 -102 12 -120 20 -18 8 -68 22 -110 31 -58 13 -93
29 -145 64 -38 26 -85 55 -104 65 -19 9 -65 47 -104 83 -64 59 -68 64 -40 60
17 -3 53 -8 80 -12z m1167 -1 c12 -15 13 -32 4 -103 l-11 -85 -84 -42 c-47
-23 -88 -40 -93 -37 -4 3 -8 61 -8 129 0 141 -5 135 100 145 36 4 68 8 71 8 3
1 13 -6 21 -15z m-218 -28 c16 -12 18 -23 12 -87 -4 -40 -14 -94 -22 -119 -14
-44 -18 -48 -62 -59 -48 -12 -156 -15 -173 -5 -5 4 -9 61 -9 128 l0 122 28 17
c36 23 197 25 226 3z"/>
<path d="M1850 3984 c-145 -10 -245 -25 -262 -41 -24 -21 -23 -103 1 -163 22
-53 52 -65 109 -44 20 7 111 27 202 44 233 42 262 51 276 78 18 37 -2 88 -41
106 -34 16 -185 27 -285 20z"/>
<path d="M1950 3541 c0 -5 -8 -12 -17 -15 -11 -3 -8 -4 6 -3 24 2 44 27 22 27
-6 0 -11 -4 -11 -9z"/>
<path d="M2005 3521 c-3 -5 -1 -12 5 -16 12 -7 30 2 30 16 0 12 -27 12 -35 0z"/>
<path d="M1845 3510 c-7 -12 22 -12 50 0 17 7 15 9 -12 9 -17 1 -35 -3 -38 -9z"/>
<path d="M1778 3488 c-17 -14 -31 -58 -18 -58 5 0 12 10 16 22 4 13 14 28 23
35 9 7 11 13 5 13 -5 0 -17 -6 -26 -12z"/>
<path d="M1703 3457 c-18 -12 -33 -26 -33 -30 0 -5 5 -5 10 -2 6 3 10 0 10 -7
1 -9 5 -7 14 4 7 10 15 15 18 13 3 -3 10 6 16 20 14 30 7 31 -35 2z"/>
<path d="M4473 2310 c-17 -10 -36 -27 -42 -38 -16 -31 -41 -150 -41 -200 0
-26 -7 -74 -15 -107 -8 -33 -15 -82 -15 -110 -1 -27 -9 -92 -18 -143 -17 -91
-19 -95 -57 -121 -63 -42 -78 -78 -83 -197 -3 -70 -1 -113 8 -134 14 -33 73
-90 94 -90 7 0 18 -11 24 -24 6 -14 27 -43 47 -64 24 -28 35 -49 35 -71 0 -47
35 -107 78 -135 47 -31 126 -46 276 -52 134 -6 161 1 196 48 29 39 32 126 7
175 -22 41 -21 43 6 43 12 1 33 7 47 14 23 13 20 14 -35 13 -33 0 -85 0 -115
0 -30 0 -81 -1 -112 -1 -49 -1 -61 3 -86 27 -58 55 -60 149 -5 196 26 23 31
24 138 17 147 -8 250 -38 277 -80 13 -21 17 -42 14 -65 -3 -22 -2 -31 4 -25 6
6 11 29 12 52 2 49 -20 85 -70 117 -17 11 -31 23 -32 27 0 4 18 31 41 60 36
48 40 58 36 99 -4 54 -41 107 -93 138 -38 23 -50 26 -146 36 -70 8 -85 17
-132 77 -27 36 -40 84 -38 133 16 268 16 287 -2 329 -29 70 -133 99 -203 56z
m173 -43 c23 -20 28 -34 32 -85 4 -55 2 -63 -21 -86 -24 -24 -24 -26 -7 -26
17 0 20 -7 20 -54 0 -60 -21 -96 -72 -122 -16 -8 -27 -18 -24 -21 3 -3 21 4
41 16 20 11 38 21 40 21 2 0 9 -25 16 -57 7 -31 23 -68 36 -83 13 -16 23 -31
23 -35 0 -4 -22 -5 -49 -1 -27 4 -70 2 -95 -4 l-46 -10 -50 50 c-55 55 -57 61
-35 80 11 9 12 16 5 25 -11 13 -6 177 6 197 5 7 7 49 5 94 -2 72 0 85 18 103
31 31 120 30 157 -2z m194 -591 c143 -15 172 -26 200 -73 30 -51 26 -93 -11
-129 l-30 -29 -151 -4 c-180 -4 -221 5 -237 51 -25 70 -6 149 43 179 37 22 28
22 186 5z m-530 -110 c0 -7 -7 -19 -15 -26 -21 -17 -19 -63 5 -93 25 -32 25
-28 -7 -110 -26 -66 -26 -68 -9 -104 9 -19 15 -38 12 -41 -9 -9 -33 17 -52 56
-21 44 -23 178 -4 237 21 66 70 123 70 81z m170 -98 c11 -16 17 -28 13 -28
-17 1 -63 75 -63 100 0 45 15 44 22 -2 4 -23 17 -55 28 -70z m490 -69 c26 -6
19 -7 -25 -3 -33 3 -67 10 -75 15 -16 9 42 2 100 -12z m-135 -333 c105 -11
137 -39 137 -116 0 -43 -4 -56 -28 -81 -28 -29 -28 -29 -145 -29 -145 0 -218
13 -242 43 -29 36 -39 70 -32 114 5 32 13 47 38 63 29 19 41 21 137 16 58 -4
119 -8 135 -10z"/>
</g>
</svg>
